<svg xmlns="http://www.w3.org/2000/svg" xmlns:xlink="http://www.w3.org/1999/xlink" width="500" zoomAndPan="magnify" viewBox="0 0 375 374.999991" height="500" preserveAspectRatio="xMidYMid meet" version="1.0"><defs><g/><clipPath id="f05675193e"><path d="M 112.738281 19 L 166 19 L 166 97 L 112.738281 97 Z M 112.738281 19 " clip-rule="nonzero"/></clipPath><clipPath id="224355a4b5"><path d="M 209 19 L 261.988281 19 L 261.988281 97 L 209 97 Z M 209 19 " clip-rule="nonzero"/></clipPath><clipPath id="2f368f0a43"><path d="M 161 0 L 213 0 L 213 116.25 L 161 116.25 Z M 161 0 " clip-rule="nonzero"/></clipPath></defs><path fill="#daa520" d="M 159.828125 94.78125 C 159.003906 94.78125 158.191406 94.503906 157.542969 93.984375 L 115.804688 61.039062 C 114.90625 60.328125 114.390625 59.269531 114.390625 58.125 C 114.390625 56.980469 114.90625 55.921875 115.800781 55.207031 L 157.542969 22.265625 C 158.191406 21.746094 159.003906 21.46875 159.828125 21.46875 C 160.96875 21.46875 162.03125 21.980469 162.730469 22.882812 C 163.339844 23.660156 163.617188 24.632812 163.5 25.613281 C 163.386719 26.597656 162.886719 27.476562 162.113281 28.089844 L 124.074219 58.125 L 162.113281 88.152344 C 162.886719 88.773438 163.386719 89.652344 163.5 90.628906 C 163.617188 91.617188 163.339844 92.582031 162.730469 93.367188 C 162.03125 94.261719 160.96875 94.78125 159.828125 94.78125 " fill-opacity="1" fill-rule="nonzero"/><g clip-path="url(#f05675193e)"><path fill="#d4af37" d="M 159.828125 19.890625 C 158.648438 19.890625 157.496094 20.285156 156.570312 21.019531 L 114.828125 53.96875 C 113.546875 54.984375 112.816406 56.496094 112.816406 58.125 C 112.816406 59.753906 113.550781 61.269531 114.828125 62.28125 L 156.570312 95.230469 C 157.492188 95.957031 158.648438 96.359375 159.828125 96.359375 C 161.457031 96.359375 162.96875 95.621094 163.96875 94.339844 C 164.847656 93.234375 165.230469 91.851562 165.066406 90.449219 C 164.894531 89.046875 164.195312 87.789062 163.089844 86.914062 L 126.617188 58.125 L 163.089844 29.335938 C 164.195312 28.457031 164.894531 27.203125 165.066406 25.800781 C 165.230469 24.398438 164.847656 23.015625 163.96875 21.902344 C 162.96875 20.621094 161.453125 19.890625 159.828125 19.890625 Z M 159.828125 23.046875 C 160.457031 23.046875 161.082031 23.324219 161.496094 23.855469 C 162.226562 24.785156 162.0625 26.125 161.144531 26.851562 L 121.523438 58.125 L 161.144531 89.398438 C 162.0625 90.125 162.226562 91.464844 161.496094 92.386719 C 161.082031 92.925781 160.457031 93.203125 159.828125 93.203125 C 159.367188 93.203125 158.90625 93.058594 158.515625 92.746094 L 116.773438 59.800781 C 116.265625 59.394531 115.964844 58.777344 115.964844 58.125 C 115.964844 57.46875 116.265625 56.855469 116.773438 56.449219 L 158.515625 23.503906 C 158.902344 23.191406 159.367188 23.046875 159.828125 23.046875 " fill-opacity="1" fill-rule="nonzero"/></g><path fill="#daa520" d="M 214.902344 94.78125 C 213.761719 94.78125 212.703125 94.261719 211.992188 93.367188 C 210.730469 91.761719 211.007812 89.425781 212.613281 88.152344 L 250.660156 58.125 L 212.613281 28.089844 C 211.007812 26.824219 210.730469 24.488281 211.992188 22.882812 C 212.703125 21.980469 213.761719 21.46875 214.902344 21.46875 C 215.726562 21.46875 216.539062 21.746094 217.1875 22.265625 L 258.929688 55.207031 C 259.824219 55.921875 260.332031 56.980469 260.332031 58.125 C 260.332031 59.269531 259.824219 60.328125 258.921875 61.039062 L 217.1875 93.984375 C 216.539062 94.503906 215.726562 94.78125 214.902344 94.78125 " fill-opacity="1" fill-rule="nonzero"/><g clip-path="url(#224355a4b5)"><path fill="#d4af37" d="M 214.902344 19.890625 C 213.277344 19.890625 211.765625 20.621094 210.757812 21.902344 C 208.957031 24.199219 209.351562 27.527344 211.640625 29.335938 L 248.109375 58.125 L 211.640625 86.914062 C 209.351562 88.714844 208.957031 92.050781 210.757812 94.339844 C 211.765625 95.621094 213.277344 96.359375 214.902344 96.359375 C 216.078125 96.359375 217.230469 95.957031 218.15625 95.230469 L 259.898438 62.28125 C 261.175781 61.269531 261.90625 59.753906 261.90625 58.125 C 261.90625 56.496094 261.175781 54.984375 259.90625 53.96875 L 218.164062 21.019531 C 217.238281 20.285156 216.078125 19.890625 214.902344 19.890625 Z M 214.902344 23.046875 C 215.359375 23.046875 215.828125 23.191406 216.210938 23.503906 L 257.953125 56.449219 C 258.464844 56.855469 258.757812 57.46875 258.757812 58.125 C 258.757812 58.777344 258.464844 59.394531 257.953125 59.800781 L 216.210938 92.746094 C 215.828125 93.058594 215.359375 93.203125 214.902344 93.203125 C 214.269531 93.203125 213.648438 92.925781 213.230469 92.386719 C 212.507812 91.464844 212.664062 90.125 213.585938 89.398438 L 253.207031 58.125 L 213.585938 26.851562 C 212.664062 26.125 212.507812 24.785156 213.230469 23.855469 C 213.648438 23.324219 214.277344 23.046875 214.902344 23.046875 " fill-opacity="1" fill-rule="nonzero"/></g><path fill="#daa520" d="M 166.621094 114.664062 C 166.160156 114.664062 165.714844 114.574219 165.285156 114.410156 C 164.367188 114.050781 163.636719 113.355469 163.238281 112.453125 C 162.835938 111.542969 162.816406 110.539062 163.171875 109.617188 L 203.9375 3.953125 C 204.484375 2.539062 205.871094 1.585938 207.382812 1.585938 C 207.839844 1.585938 208.296875 1.675781 208.722656 1.839844 C 210.617188 2.578125 211.570312 4.730469 210.832031 6.640625 L 170.074219 112.296875 C 169.523438 113.710938 168.132812 114.664062 166.621094 114.664062 " fill-opacity="1" fill-rule="nonzero"/><g clip-path="url(#2f368f0a43)"><path fill="#d4af37" d="M 207.382812 0.0078125 C 205.222656 0.0078125 203.246094 1.371094 202.46875 3.386719 L 161.703125 109.042969 C 161.199219 110.363281 161.230469 111.796875 161.796875 113.089844 C 162.371094 114.378906 163.402344 115.378906 164.71875 115.882812 C 165.332031 116.125 165.964844 116.242188 166.621094 116.242188 C 168.78125 116.242188 170.757812 114.886719 171.539062 112.863281 L 212.300781 7.207031 C 213.351562 4.484375 211.996094 1.414062 209.285156 0.367188 C 208.679688 0.125 208.035156 0.0078125 207.382812 0.0078125 Z M 207.382812 3.164062 C 207.640625 3.164062 207.898438 3.214844 208.148438 3.3125 C 209.246094 3.734375 209.789062 4.964844 209.367188 6.066406 L 168.597656 111.71875 C 168.277344 112.566406 167.472656 113.085938 166.621094 113.085938 C 166.363281 113.085938 166.105469 113.039062 165.851562 112.9375 C 164.757812 112.515625 164.214844 111.277344 164.644531 110.183594 L 205.40625 4.53125 C 205.730469 3.683594 206.53125 3.164062 207.382812 3.164062 " fill-opacity="1" fill-rule="nonzero"/></g><g fill="#d4af37" fill-opacity="1"><g transform="translate(110.124787, 216.479223)"><g><path d="M 21.890625 0 L 21.890625 -83.742188 L 5.574219 -83.742188 L 5.574219 0 Z M 21.890625 0 "/></g></g></g><g fill="#d4af37" fill-opacity="1"><g transform="translate(133.662216, 216.479223)"><g><path d="M 33.042969 1.652344 C 39.03125 1.652344 50.699219 0.308594 60.511719 -1.445312 L 60.511719 -59.269531 L 44.195312 -59.269531 L 44.195312 -13.421875 C 40.375 -12.699219 36.65625 -12.390625 33.765625 -12.390625 C 26.019531 -12.390625 21.996094 -15.074219 21.996094 -22.613281 L 21.996094 -59.269531 L 5.574219 -59.269531 L 5.574219 -21.269531 C 5.574219 -3.511719 18.378906 1.652344 33.042969 1.652344 Z M 33.042969 1.652344 "/></g></g></g><g fill="#d4af37" fill-opacity="1"><g transform="translate(195.914066, 216.479223)"><g><path d="M 21.996094 0 L 21.996094 -43.367188 C 23.335938 -43.679688 30.046875 -44.195312 32.527344 -44.195312 L 41.40625 -44.195312 L 41.40625 -59.269531 L 29.84375 -59.269531 C 24.472656 -59.269531 14.25 -58.859375 5.574219 -57 L 5.574219 0 Z M 21.996094 0 "/></g></g></g><g fill="#d4af37" fill-opacity="1"><g transform="translate(237.311757, 216.479223)"><g><path d="M 13.734375 -67.015625 C 18.277344 -67.015625 21.890625 -69.289062 21.890625 -74.242188 C 21.890625 -78.683594 18.585938 -81.367188 13.734375 -81.367188 C 8.984375 -81.367188 5.574219 -78.683594 5.574219 -74.242188 C 5.574219 -69.289062 9.292969 -67.015625 13.734375 -67.015625 Z M 21.996094 0 L 21.996094 -59.269531 L 5.574219 -59.269531 L 5.574219 0 Z M 21.996094 0 "/></g></g></g><g fill="#daa520" fill-opacity="1"><g transform="translate(24.476565, 305.762963)"><g><path d="M 38.078125 -13.046875 L 23.972656 -66.125 L 4.484375 -66.125 L 4.484375 0 L 17.203125 0 L 17.203125 -55.199219 L 31.71875 0 L 44.355469 0 L 58.785156 -55.117188 L 58.785156 0 L 71.585938 0 L 71.585938 -66.125 L 52.101562 -66.125 Z M 38.078125 -13.046875 "/></g></g></g><g fill="#daa520" fill-opacity="1"><g transform="translate(97.432684, 305.762963)"><g><path d="M 51.773438 -21.851562 C 51.773438 -38.566406 42.640625 -48.675781 27.640625 -48.675781 C 12.800781 -48.675781 3.261719 -38.402344 3.261719 -23.808594 L 3.261719 -23.726562 C 3.261719 -8.886719 13.453125 1.222656 29.1875 1.222656 C 38.320312 1.222656 44.761719 -1.628906 49.492188 -4.566406 L 43.867188 -14.59375 C 40.441406 -12.148438 35.46875 -10.109375 29.761719 -10.109375 C 22.667969 -10.109375 18.019531 -14.675781 16.714844 -20.710938 L 51.773438 -20.710938 Z M 27.558594 -38.15625 C 33.835938 -38.15625 37.585938 -34.082031 38.566406 -28.699219 L 16.796875 -28.699219 C 18.019531 -34.082031 21.933594 -38.15625 27.558594 -38.15625 Z M 27.558594 -38.15625 "/></g></g></g><g fill="#daa520" fill-opacity="1"><g transform="translate(149.439205, 305.762963)"><g><path d="M 17.367188 0 L 17.367188 -36.28125 C 20.382812 -36.773438 23.320312 -37.097656 25.601562 -37.097656 C 31.636719 -37.097656 34.898438 -34.898438 34.898438 -29.027344 L 34.898438 0 L 47.777344 0 L 47.777344 -30.574219 C 47.777344 -44.597656 37.75 -48.675781 26.171875 -48.675781 C 21.445312 -48.675781 12.230469 -47.617188 4.402344 -46.230469 L 4.402344 0 Z M 17.367188 0 "/></g></g></g><g fill="#daa520" fill-opacity="1"><g transform="translate(198.592656, 305.762963)"><g><path d="M 29.269531 1.304688 C 37.996094 1.304688 43.867188 0 50.550781 -3.261719 L 50.550781 -66.125 L 37.667969 -66.125 L 37.667969 -47.453125 C 34.816406 -48.105469 31.796875 -48.675781 28.78125 -48.675781 C 12.800781 -48.675781 3.34375 -38.15625 3.34375 -23.808594 L 3.34375 -23.644531 C 3.34375 -9.296875 13.289062 1.304688 29.269531 1.304688 Z M 29.269531 -10.273438 C 20.792969 -10.273438 16.308594 -16.144531 16.308594 -23.644531 L 16.308594 -23.808594 C 16.308594 -31.308594 20.792969 -37.097656 29.269531 -37.097656 C 32.125 -37.097656 35.140625 -36.445312 37.667969 -35.875 L 37.667969 -11.332031 C 35.140625 -10.679688 32.371094 -10.273438 29.269531 -10.273438 Z M 29.269531 -10.273438 "/></g></g></g><g fill="#daa520" fill-opacity="1"><g transform="translate(250.517662, 305.762963)"><g><path d="M 51.773438 -21.851562 C 51.773438 -38.566406 42.640625 -48.675781 27.640625 -48.675781 C 12.800781 -48.675781 3.261719 -38.402344 3.261719 -23.808594 L 3.261719 -23.726562 C 3.261719 -8.886719 13.453125 1.222656 29.1875 1.222656 C 38.320312 1.222656 44.761719 -1.628906 49.492188 -4.566406 L 43.867188 -14.59375 C 40.441406 -12.148438 35.46875 -10.109375 29.761719 -10.109375 C 22.667969 -10.109375 18.019531 -14.675781 16.714844 -20.710938 L 51.773438 -20.710938 Z M 27.558594 -38.15625 C 33.835938 -38.15625 37.585938 -34.082031 38.566406 -28.699219 L 16.796875 -28.699219 C 18.019531 -34.082031 21.933594 -38.15625 27.558594 -38.15625 Z M 27.558594 -38.15625 "/></g></g></g><g fill="#daa520" fill-opacity="1"><g transform="translate(302.524189, 305.762963)"><g><path d="M 23.890625 1.058594 C 37.832031 1.058594 44.761719 -3.996094 44.761719 -14.105469 C 44.761719 -21.523438 39.871094 -26.089844 29.351562 -29.027344 L 26.007812 -29.921875 C 20.382812 -31.554688 18.101562 -32.695312 18.101562 -35.058594 C 18.101562 -37.667969 20.871094 -38.566406 25.601562 -38.566406 C 29.597656 -38.566406 35.222656 -37.667969 39.382812 -35.46875 L 43.132812 -44.519531 C 38.320312 -47.046875 31.144531 -48.59375 24.050781 -48.59375 C 11.902344 -48.59375 5.054688 -43.292969 5.054688 -34.652344 C 5.054688 -26.90625 9.457031 -22.339844 19.242188 -19.730469 L 23.644531 -18.589844 C 30.492188 -16.714844 32.042969 -15.65625 32.042969 -13.128906 C 32.042969 -9.703125 28.292969 -8.96875 22.75 -8.96875 C 18.019531 -8.96875 12.3125 -10.027344 6.847656 -12.394531 L 3.34375 -3.015625 C 10.027344 -0.246094 16.550781 1.058594 23.890625 1.058594 Z M 23.890625 1.058594 "/></g></g></g></svg>